<mxfile host="65bd71144e">
    <diagram name="Component Diagram" id="component1">
        <mxGraphModel dx="1028" dy="797" grid="1" gridSize="10" guides="1" tooltips="1" connect="1" arrows="1" fold="1" page="1" pageScale="1" pageWidth="827" pageHeight="1169" math="0" shadow="0">
            <root>
                <mxCell id="0"/>
                <mxCell id="1" parent="0"/>
                <mxCell id="2" value="User" style="shape=umlActor;verticalLabelPosition=bottom;verticalAlign=top;strokeWidth=3;fontSize=14;fontStyle=1" parent="1" vertex="1">
                    <mxGeometry x="20" y="20" width="30" height="60" as="geometry"/>
                </mxCell>
                <mxCell id="3" value="User Interface" style="swimlane;strokeWidth=3;fontSize=14;fontStyle=1" parent="1" vertex="1">
                    <mxGeometry x="100" y="20" width="160" height="250" as="geometry"/>
                </mxCell>
                <mxCell id="5" value="Dashboard" style="component;strokeWidth=3;fontSize=14;fontStyle=1" parent="3" vertex="1">
                    <mxGeometry x="20" y="80" width="120" height="40" as="geometry"/>
                </mxCell>
                <mxCell id="25" value="LogoutÂ " style="component;strokeWidth=3;fontSize=14;fontStyle=1" vertex="1" parent="3">
                    <mxGeometry x="20" y="150" width="120" height="40" as="geometry"/>
                </mxCell>
                <mxCell id="4" value="LoginForm" style="component;strokeWidth=3;fontSize=14;fontStyle=1" parent="1" vertex="1">
                    <mxGeometry x="120" y="50" width="120" height="40" as="geometry"/>
                </mxCell>
                <mxCell id="6" value="Application Logic" style="swimlane;strokeWidth=3;fontSize=14;fontStyle=1" parent="1" vertex="1">
                    <mxGeometry x="300" y="20" width="180" height="250" as="geometry"/>
                </mxCell>
                <mxCell id="23" value="Penilaian Manager" style="component;strokeWidth=3;fontSize=14;fontStyle=1" vertex="1" parent="6">
                    <mxGeometry x="20" y="190" width="140" height="40" as="geometry"/>
                </mxCell>
                <mxCell id="7" value="AHP Processor" style="component;strokeWidth=3;fontSize=14;fontStyle=1" parent="1" vertex="1">
                    <mxGeometry x="320" y="50" width="140" height="40" as="geometry"/>
                </mxCell>
                <mxCell id="8" value="Alternatif Manager" style="component;strokeWidth=3;fontSize=14;fontStyle=1" parent="1" vertex="1">
                    <mxGeometry x="320" y="100" width="140" height="40" as="geometry"/>
                </mxCell>
                <mxCell id="9" value="Kriteria Manager" style="component;strokeWidth=3;fontSize=14;fontStyle=1" parent="1" vertex="1">
                    <mxGeometry x="320" y="150" width="140" height="40" as="geometry"/>
                </mxCell>
                <mxCell id="10" value="Data Access Layer" style="swimlane;strokeWidth=3;fontSize=14;fontStyle=1" parent="1" vertex="1">
                    <mxGeometry x="520" y="20" width="160" height="250" as="geometry"/>
                </mxCell>
                <mxCell id="12" value="Query Engine" style="component;strokeWidth=3;fontSize=14;fontStyle=1" parent="10" vertex="1">
                    <mxGeometry x="20" y="130" width="120" height="40" as="geometry"/>
                </mxCell>
                <mxCell id="11" value="Repository" style="component;strokeWidth=3;fontSize=14;fontStyle=1" parent="10" vertex="1">
                    <mxGeometry x="20" y="80" width="120" height="40" as="geometry"/>
                </mxCell>
                <mxCell id="13" value="&lt;div&gt;&lt;br&gt;&lt;/div&gt;Database (MySQL)" style="shape=cylinder;whiteSpace=wrap;html=1;strokeWidth=3;fontSize=14;fontStyle=1" parent="1" vertex="1">
                    <mxGeometry x="720" y="110" width="100" height="70" as="geometry"/>
                </mxCell>
                <mxCell id="15" style="endArrow=block;strokeWidth=3;fontSize=14;fontStyle=1" parent="1" source="4" target="7" edge="1">
                    <mxGeometry relative="1" as="geometry"/>
                </mxCell>
                <mxCell id="16" style="endArrow=block;strokeWidth=3;fontSize=14;fontStyle=1" parent="1" source="5" target="8" edge="1">
                    <mxGeometry relative="1" as="geometry"/>
                </mxCell>
                <mxCell id="17" style="endArrow=block;strokeWidth=3;entryX=0;entryY=0.5;entryDx=0;entryDy=0;exitX=1;exitY=0.5;exitDx=0;exitDy=0;fontSize=14;fontStyle=1" parent="1" source="8" target="11" edge="1">
                    <mxGeometry relative="1" as="geometry"/>
                </mxCell>
                <mxCell id="18" style="endArrow=block;strokeWidth=3;entryX=0;entryY=0.5;entryDx=0;entryDy=0;exitX=1;exitY=0.5;exitDx=0;exitDy=0;fontSize=14;fontStyle=1" parent="1" source="23" target="12" edge="1">
                    <mxGeometry relative="1" as="geometry"/>
                </mxCell>
                <mxCell id="19" style="endArrow=block;strokeWidth=3;fontSize=14;fontStyle=1" parent="1" source="11" target="13" edge="1">
                    <mxGeometry relative="1" as="geometry"/>
                </mxCell>
                <mxCell id="20" style="endArrow=block;strokeWidth=3;fontSize=14;fontStyle=1" parent="1" source="12" target="13" edge="1">
                    <mxGeometry relative="1" as="geometry"/>
                </mxCell>
                <mxCell id="21" style="endArrow=block;strokeWidth=3;fontSize=14;fontStyle=1" edge="1" parent="1">
                    <mxGeometry relative="1" as="geometry">
                        <mxPoint x="50" y="60" as="sourcePoint"/>
                        <mxPoint x="100" y="60" as="targetPoint"/>
                    </mxGeometry>
                </mxCell>
                <mxCell id="24" style="endArrow=block;strokeWidth=3;exitX=1;exitY=0.5;exitDx=0;exitDy=0;fontSize=14;fontStyle=1" edge="1" parent="1" source="9">
                    <mxGeometry relative="1" as="geometry">
                        <mxPoint x="470" y="180" as="sourcePoint"/>
                        <mxPoint x="540" y="170" as="targetPoint"/>
                    </mxGeometry>
                </mxCell>
            </root>
        </mxGraphModel>
    </diagram>
</mxfile>